<svg t="1750320046869" class="icon" viewBox="0 0 1303 1024" version="1.1" xmlns="http://www.w3.org/2000/svg" p-id="9700"
     width="40" height="40">
    <path d="M139.636364 0h1024a139.636364 139.636364 0 0 1 139.636363 139.636364v744.727272a139.636364 139.636364 0 0 1-139.636363 139.636364H139.636364a139.636364 139.636364 0 0 1-139.636364-139.636364V139.636364a139.636364 139.636364 0 0 1 139.636364-139.636364z m1024 930.909091a46.545455 46.545455 0 0 0 46.545454-46.545455V139.636364a46.545455 46.545455 0 0 0-46.545454-46.545455H139.636364a46.545455 46.545455 0 0 0-46.545455 46.545455v744.727272a46.545455 46.545455 0 0 0 46.545455 46.545455z"
          fill="#0091FF" p-id="9701"></path>
    <path d="M292.770909 728.529455c92.718545 0 136.843636-45.242182 136.843636-117.853091 0-68.142545-36.305455-93.090909-96.628363-110.592l-35.746909-11.170909C259.258182 478.301091 248.087273 465.454545 248.087273 435.293091s22.341818-47.476364 62.557091-47.476364a245.853091 245.853091 0 0 1 97.745454 18.990546V353.186909a197.306182 197.306182 0 0 0-98.862545-20.666182c-86.574545 0-128.465455 44.125091-128.465455 108.916364a102.120727 102.120727 0 0 0 87.133091 108.916364l36.305455 10.053818c41.890909 12.846545 55.854545 25.134545 55.854545 56.971636 0 34.629818-21.783273 55.854545-73.169454 55.854546a269.963636 269.963636 0 0 1-108.916364-23.272728v53.992728a243.944727 243.944727 0 0 0 114.501818 24.576z m533.969455-193.815273v-11.729455c0-126.789818-69.818182-190.464-172.218182-190.464-104.261818 0-175.104 68.142545-175.104 191.581091v12.288c0 111.709091 48.500364 166.446545 128.930909 189.346909l216.157091 62.557091 13.963636-56.413091-120.087273-27.368727c67.584-19.549091 108.357818-76.148364 108.357819-169.797818z m-173.149091 141.312c-73.169455 0-101.096727-53.061818-101.096728-140.194909v-19.549091c0-77.637818 32.581818-130.327273 98.862546-130.327273 74.472727 0.558545 102.4 52.503273 102.4 138.519273v19.549091c-0.186182 78.382545-33.140364 132.002909-100.165818 132.002909z m244.084363 45.800727h230.679273v-54.178909h-161.978182V338.664727h-68.701091z"
          fill="#0091FF" opacity="1" p-id="9702"></path>
</svg>